# xmcd CD database file
#
# Track frame offsets:
#	150
#	11210
#	22575
#	32707
#	45940
#	57917
#	73950
#	90465
#	104345
#	118350
#	132697
#	148585
#	160607
#	178057
#	190685
#	204545
#	217422
#	233227
#	247495
#	258602
#	272017
#	287715
#
# Disc length: 3970 seconds
#
# Revision: 2
# Processed by: cddbd v1.5.1PL0 Copyright (c) Steve Scherf et al.
# Submitted via: CDex 1.51
#
DISCID=560f8016
DTITLE=Dusty Springfield - Songbooks RM
DYEAR=1997
DGENRE=Vocal
TTITLE0=They Long To Be Close To You
TTITLE1=In The Land Of Make Believe
TTITLE2=Another Night
TTITLE3=Wishin' And Hopin'
TTITLE4=Long After Tonight Is Over
TTITLE5=The Look Of Love
TTITLE6=This Girl's In Love With You
TTITLE7=I Just Don't Know What To Do With Myself
TTITLE8=Thenty-four Hours From Tulsa
TTITLE9=Anyone Who Had A heart
TTITLE10=Goin' Back
TTITLE11=Will You Love Me Tomorrow ?
TTITLE12=I Can't Make It Alone
TTITLE13=Oh No! Not My Baby
TTITLE14=Some Of Your Lovin'
TTITLE15=Don't Forget About Me
TTITLE16=So Much Love
TTITLE17=No Easy Way Down
TTITLE18=I Can't Hear You No More
TTITLE19=That Old Sweet Role (Hi De Ho)
TTITLE20=Wasn't Born To Follow
TTITLE21=I'll Love You For a While
EXTD=YEAR: 1997
EXTT0=
EXTT1=
EXTT2=
EXTT3=
EXTT4=
EXTT5=
EXTT6=
EXTT7=
EXTT8=
EXTT9=
EXTT10=
EXTT11=
EXTT12=
EXTT13=
EXTT14=
EXTT15=
EXTT16=
EXTT17=
EXTT18=
EXTT19=
EXTT20=
EXTT21=
PLAYORDER=
